<svg width="128" height="128" viewBox="0 0 128 128" fill="none" xmlns="http://www.w3.org/2000/svg">
<path d="M104 8H24C15.1634 8 8 15.1634 8 24V104C8 112.837 15.1634 120 24 120H104C112.837 120 120 112.837 120 104V24C120 15.1634 112.837 8 104 8Z" fill="#904EE2"/>
<path fill-rule="evenodd" clip-rule="evenodd" d="M87.3864 62.0528L87.3704 62.0208C87.7384 61.4208 88.0024 60.7568 88.0024 59.9968C88.0024 57.7888 86.2104 55.9968 84.0024 55.9968H64.0024V35.9968C64.0024 33.7888 62.2104 31.9968 60.0024 31.9968C58.6264 31.9968 57.4824 32.7328 56.7624 33.7808C56.5384 34.1088 56.3544 34.4448 56.2344 34.8208L40.6504 65.8928L40.6664 65.9168C40.2824 66.5328 40.0024 67.2208 40.0024 67.9968C40.0024 70.2128 41.7944 71.9968 44.0024 71.9968H64.0024V91.9968C64.0024 94.2128 65.7944 95.9968 68.0024 95.9968C69.4344 95.9968 70.6344 95.2048 71.3464 94.0688L71.3704 94.0768L71.4744 93.8688C71.5624 93.7008 71.6584 93.5488 71.7224 93.3728L87.3864 62.0528Z" fill="white"/>
</svg>
