<svg width="128" height="128" viewBox="0 0 128 128" fill="none" xmlns="http://www.w3.org/2000/svg">
<path d="M104 8H24C15.1634 8 8 15.1634 8 24V104C8 112.837 15.1634 120 24 120H104C112.837 120 120 112.837 120 104V24C120 15.1634 112.837 8 104 8Z" fill="#63BA3C"/>
<path fill-rule="evenodd" clip-rule="evenodd" d="M80 32H48C43.584 32 40 35.584 40 40V92C40 94.208 41.792 96 44 96C45.4 96 46.568 95.24 47.28 94.152L47.312 94.16L62.72 76.32C63.36 75.472 64.64 75.472 65.28 76.32L80.688 94.16L80.72 94.152C81.432 95.24 82.6 96 84 96C86.208 96 88 94.208 88 92V40C88 35.584 84.416 32 80 32Z" fill="white"/>
</svg>
